:FULLY-SPECIFIED
:FORCE-ALL-JOINTS-BE-3DOF
:DEGREES
849
root 3.70276 16.5408 27.9224 -13.3932 25.4945 -3.16983
lfemur -16.2999 7.1463 -18.0377
ltibia 37.0985 -0 0
lfoot -7.22948 -21.6611 -0.760012
ltoes 23.8793 -0 0
rfemur -52.8317 -3.4276 8.96767
rtibia 46.6175 -0 0
rfoot 0.855987 -3.6268 0.676294
rtoes -14.8881 0 0
lowerback 11.3007 -0.721821 -3.69063
upperback 3.55435 -1.34527 -1.33208
thorax -2.45368 -0.67591 0.987874
lowerneck -6.52375 -3.73427 2.00347
upperneck 6.568 -5.47903 3.56177
head 3.3526 -2.50485 0.564069
lclavicle -1.10123e-14 1.50466e-14 -1.66433e-30
lhumerus -38.3165 -21.0371 82.6764
lradius 58.0143 -0 0
lwrist 21.4494 0 0
lhand 4.06417 2.69259 0.235047
lfingers 7.12502 -0 0
lthumb 29.4487 30.0818 0.158908
rclavicle -1.10123e-14 1.50466e-14 -1.66433e-30
rhumerus -45.3111 4.28024 -59.9865
rradius 55.2552 -0 0
rwrist 2.60315 0 0
rhand -8.21689 -28.7718 -0.153662
rfingers 7.12502 -0 0
rthumb 17.6961 -57.9288 -0.138786
850
root 3.72919 16.5429 28.0438 -13.4945 24.8426 -3.00645
lfemur -16.0327 7.09974 -18.1117
ltibia 36.9388 -0 0
lfoot -7.07143 -22.1484 -0.700922
ltoes 23.9206 -0 0
rfemur -53.3775 -3.31681 8.82814
rtibia 46.6364 -0 0
rfoot 1.10414 -3.21265 0.627694
rtoes -14.7996 0 0
lowerback 11.4482 -0.789247 -3.7444
upperback 3.61457 -1.44762 -1.31163
thorax -2.4732 -0.725927 1.04635
lowerneck -6.53999 -3.6944 2.03713
upperneck 6.66603 -5.43228 3.54815
head 3.38502 -2.48008 0.553726
lclavicle -1.08899e-14 1.51297e-14 -1.61565e-30
lhumerus -38.0694 -21.1664 82.5044
lradius 57.8802 -0 0
lwrist 21.5643 0 0
lhand 4.41865 2.80313 0.217967
lfingers 7.12502 -0 0
lthumb 29.7889 30.1522 0.147469
rclavicle -1.08899e-14 1.51297e-14 -1.61565e-30
rhumerus -45.71 3.76592 -59.2758
rradius 54.9656 -0 0
rwrist 2.51686 0 0
rhand -8.06408 -28.8716 -0.14106
rfingers 7.12502 -0 0
rthumb 17.8436 -58.021 -0.127613
851
root 3.75493 16.5448 28.1622 -13.5945 24.2073 -2.84567
lfemur -15.7715 7.05622 -18.1849
ltibia 36.7841 -0 0
lfoot -6.91993 -22.6189 -0.642171
ltoes 23.9555 -0 0
rfemur -53.9144 -3.2164 8.69912
rtibia 46.6623 -0 0
rfoot 1.34665 -2.80482 0.578905
rtoes -14.7173 0 0
lowerback 11.5934 -0.854991 -3.79798
upperback 3.67372 -1.54779 -1.29242
thorax -2.49242 -0.774844 1.10338
lowerneck -6.55597 -3.6553 2.06994
upperneck 6.76014 -5.38634 3.53518
head 3.41618 -2.45578 0.543745
lclavicle -1.07369e-14 1.52027e-14 -1.5588e-30
lhumerus -37.8275 -21.2947 82.3366
lradius 57.7519 -0 0
lwrist 21.6768 0 0
lhand 4.76672 2.91192 0.200837
lfingers 7.12502 -0 0
lthumb 30.1228 30.2212 0.135987
rclavicle -1.07369e-14 1.52027e-14 -1.5588e-30
rhumerus -46.1029 3.26297 -58.5781
rradius 54.6857 -0 0
rwrist 2.42891 0 0
rhand -7.91932 -28.9681 -0.128596
rfingers 7.12502 -0 0
rthumb 17.9832 -58.1103 -0.116541
852
root 3.77996 16.5467 28.2776 -13.6929 23.5894 -2.68763
lfemur -15.5167 7.01579 -18.2573
ltibia 36.6343 -0 0
lfoot -6.77512 -23.0721 -0.583964
ltoes 23.9837 -0 0
rfemur -54.4418 -3.12643 8.58109
rtibia 46.6955 -0 0
rfoot 1.58332 -2.40355 0.530078
rtoes -14.6413 0 0
lowerback 11.7363 -0.919001 -3.85135
upperback 3.73176 -1.64569 -1.27449
thorax -2.51134 -0.822624 1.1589
lowerneck -6.57168 -3.617 2.10186
upperneck 6.85022 -5.34126 3.52285
head 3.44602 -2.43198 0.534135
lclavicle -1.05523e-14 1.52652e-14 -1.49356e-30
lhumerus -37.5911 -21.422 82.1732
lradius 57.6295 -0 0
lwrist 21.7871 0 0
lhand 5.10811 3.01887 0.183712
lfingers 7.12502 -0 0
lthumb 30.4504 30.2888 0.124498
rclavicle -1.05523e-14 1.52652e-14 -1.49356e-30
rhumerus -46.489 2.77139 -57.8942
rradius 54.416 -0 0
rwrist 2.33926 0 0
rhand -7.78288 -29.061 -0.116318
rfingers 7.12502 -0 0
rthumb 18.1148 -58.1965 -0.105612
853
root 3.80425 16.5485 28.39 -13.7896 22.9892 -2.53247
lfemur -15.2684 6.9785 -18.3287
ltibia 36.4898 -0 0
lfoot -6.63717 -23.5074 -0.526506
ltoes 24.0052 -0 0
rfemur -54.9593 -3.04699 8.47455
rtibia 46.7362 -0 0
rfoot 1.81399 -2.0091 0.481371
rtoes -14.5719 0 0
lowerback 11.8767 -0.981224 -3.90446
upperback 3.78866 -1.74124 -1.25786
thorax -2.52994 -0.869227 1.21286
lowerneck -6.58712 -3.57954 2.13287
upperneck 6.93614 -5.29707 3.5112
head 3.47451 -2.40869 0.524908
lclavicle -1.03353e-14 1.53171e-14 -1.4197e-30
lhumerus -37.3604 -21.5483 82.0143
lradius 57.5133 -0 0
lwrist 21.8948 0 0
lhand 5.44257 3.12394 0.166649
lfingers 7.12502 -0 0
lthumb 30.7712 30.3548 0.113039
rclavicle -1.03353e-14 1.53171e-14 -1.4197e-30
rhumerus -46.8675 2.29116 -57.2248
rradius 54.1566 -0 0
rwrist 2.2479 0 0
rhand -7.655 -29.1502 -0.104273
rfingers 7.12502 -0 0
rthumb 18.2382 -58.2795 -0.0948666
854
root 3.82778 16.5502 28.4991 -13.8842 22.4075 -2.38032
lfemur -15.0268 6.94442 -18.3992
ltibia 36.3505 -0 0
lfoot -6.50624 -23.9243 -0.469999
ltoes 24.0197 -0 0
rfemur -55.4665 -2.97814 8.38
rtibia 46.7844 -0 0
rfoot 2.03847 -1.6217 0.432941
rtoes -14.5092 0 0
lowerback 12.0145 -1.04161 -3.95729
upperback 3.84437 -1.83436 -1.24256
thorax -2.5482 -0.914614 1.2652
lowerneck -6.60227 -3.54294 2.16294
upperneck 7.01776 -5.25381 3.50021
head 3.5016 -2.38593 0.516072
lclavicle -1.00849e-14 1.53581e-14 -1.33705e-30
lhumerus -37.1356 -21.6736 81.8602
lradius 57.4033 -0 0
lwrist 22 0 0
lhand 5.76986 3.22705 0.149705
lfingers 7.12502 -0 0
lthumb 31.0851 30.4192 0.101648
rclavicle -1.00849e-14 1.53581e-14 -1.33705e-30
rhumerus -47.2379 1.82223 -56.5707
rradius 53.9079 -0 0
rwrist 2.15479 0 0
rhand -7.53592 -29.2357 -0.0925073
rfingers 7.12502 -0 0
rthumb 18.3531 -58.3591 -0.0843457
855
root 3.85053 16.5518 28.6048 -13.9767 21.8446 -2.23133
lfemur -14.7923 6.91359 -18.4685
ltibia 36.2168 -0 0
lfoot -6.38246 -24.3222 -0.414646
ltoes 24.0271 -0 0
rfemur -55.963 -2.91995 8.29793
rtibia 46.8405 -0 0
rfoot 2.25658 -1.2416 0.384949
rtoes -14.4533 0 0
lowerback 12.1496 -1.1001 -4.0098
upperback 3.89886 -1.92496 -1.22862
thorax -2.56611 -0.958745 1.31588
lowerneck -6.61712 -3.50724 2.19204
upperneck 7.09498 -5.21151 3.4899
head 3.52726 -2.36373 0.507639
lclavicle -9.80043e-15 1.53878e-14 -1.24541e-30
lhumerus -36.9171 -21.7979 81.711
lradius 57.2998 -0 0
lwrist 22.1026 0 0
lhand 6.08971 3.32815 0.132939
lfingers 7.12502 -0 0
lthumb 31.3919 30.4821 0.090363
rclavicle -9.80043e-15 1.53878e-14 -1.24541e-30
rhumerus -47.5991 1.36456 -55.9326
rradius 53.6703 -0 0
rwrist 2.05992 0 0
rhand -7.4259 -29.3173 -0.0810685
rfingers 7.12502 -0 0
rthumb 18.4593 -58.4354 -0.0740864
856
root 3.87247 16.5534 28.7072 -14.0668 21.3013 -2.08565
lfemur -14.565 6.88608 -18.5367
ltibia 36.0887 -0 0
lfoot -6.266 -24.7006 -0.360644
ltoes 24.0271 -0 0
rfemur -56.4484 -2.87247 8.22883
rtibia 46.9045 -0 0
rfoot 2.46815 -0.86904 0.337558
rtoes -14.4046 0 0
lowerback 12.282 -1.15666 -4.06195
upperback 3.9521 -2.01296 -1.21607
thorax -2.58364 -1.00158 1.36484
lowerneck -6.63167 -3.47246 2.22014
upperneck 7.16766 -5.1702 3.48029
head 3.55144 -2.34209 0.499619
lclavicle -9.48096e-15 1.54061e-14 -1.14464e-30
lhumerus -36.705 -21.9214 81.567
lradius 57.203 -0 0
lwrist 22.2025 0 0
lhand 6.40188 3.42717 0.116409
lfingers 7.12502 -0 0
lthumb 31.6913 30.5432 0.0792218
rclavicle -9.48096e-15 1.54061e-14 -1.14464e-30
rhumerus -47.9506 0.918077 -55.3114
rradius 53.4441 -0 0
rwrist 1.96326 0 0
rhand -7.32515 -29.3949 -0.0699986
rfingers 7.12502 -0 0
rthumb 18.5565 -58.5082 -0.0641361
857
root 3.89357 16.5548 28.806 -14.1544 20.778 -1.94342
lfemur -14.3451 6.86193 -18.6037
ltibia 35.9665 -0 0
lfoot -6.15699 -25.059 -0.308191
ltoes 24.0196 -0 0
rfemur -56.9223 -2.83577 8.17318
rtibia 46.9767 -0 0
rfoot 2.67299 -0.504257 0.290932
rtoes -14.3631 0 0
lowerback 12.4115 -1.21122 -4.11372
upperback 4.00404 -2.09827 -1.20494
thorax -2.60078 -1.04309 1.41203
lowerneck -6.64591 -3.43864 2.24721
upperneck 7.23569 -5.12993 3.47138
head 3.57411 -2.32105 0.49202
lclavicle -9.12563e-15 1.54127e-14 -1.03462e-30
lhumerus -36.4995 -22.0439 81.4285
lradius 57.113 -0 0
lwrist 22.2996 0 0
lhand 6.70611 3.52406 0.100175
lfingers 7.12502 -0 0
lthumb 31.983 30.6027 0.0682636
rclavicle -9.12563e-15 1.54127e-14 -1.03462e-30
rhumerus -48.2914 0.482691 -54.7079
rradius 53.2296 -0 0
rwrist 1.86478 0 0
rhand -7.23399 -29.4684 -0.0593498
rfingers 7.12502 -0 0
rthumb 18.6444 -58.5774 -0.0545297
858
root 3.91381 16.5562 28.9011 -14.2391 20.2754 -1.8048
lfemur -14.1329 6.84119 -18.6694
ltibia 35.8503 -0 0
lfoot -6.05559 -25.3967 -0.25748
ltoes 24.0043 -0 0
rfemur -57.3842 -2.80991 8.13147
rtibia 47.0572 -0 0
rfoot 2.87095 -0.147493 0.245237
rtoes -14.3291 0 0
lowerback 12.5381 -1.26374 -4.16506
upperback 4.05465 -2.1808 -1.19525
thorax -2.61752 -1.08322 1.45738
lowerneck -6.65983 -3.4058 2.27323
upperneck 7.29893 -5.09073 3.46318
head 3.59523 -2.30061 0.484854
lclavicle -8.7336e-15 1.54072e-14 -9.15233e-31
lhumerus -36.301 -22.1654 81.2955
lradius 57.03 -0 0
lwrist 22.3938 0 0
lhand 7.00216 3.61874 0.0842994
lfingers 7.12502 -0 0
lthumb 32.2668 30.6604 0.0575277
rclavicle -8.7336e-15 1.54072e-14 -9.15233e-31
rhumerus -48.6209 0.0583113 -54.1228
rradius 53.0271 -0 0
rwrist 1.76446 0 0
rhand -7.15263 -29.5377 -0.0491619
rfingers 7.12502 -0 0
rthumb 18.723 -58.6429 -0.0453057
859
root 3.93316 16.5574 28.9926 -14.3209 19.7939 -1.66995
lfemur -13.9286 6.82392 -18.7337
ltibia 35.7403 -0 0
lfoot -5.96194 -25.7134 -0.2087
ltoes 23.9812 -0 0
rfemur -57.8338 -2.79496 8.10418
rtibia 47.1463 -0 0
rfoot 3.06183 0.201013 0.20064
rtoes -14.3027 0 0
lowerback 12.6615 -1.31416 -4.21595
upperback 4.10389 -2.26048 -1.18704
thorax -2.63382 -1.12194 1.50085
lowerneck -6.67343 -3.37399 2.29815
upperneck 7.35726 -5.05263 3.45571
head 3.61474 -2.2808 0.478131
lclavicle -8.30402e-15 1.53895e-14 -7.86405e-31
lhumerus -36.1097 -22.2861 81.1683
lradius 56.9543 -0 0
lwrist 22.485 0 0
lhand 7.28976 3.71117 0.0688418
lfingers 7.12502 -0 0
lthumb 32.5424 30.7164 0.0470536
rclavicle -8.30402e-15 1.53895e-14 -7.86405e-31
rhumerus -48.9382 -0.355166 -53.5569
rradius 52.8369 -0 0
rwrist 1.66228 0 0
rhand -7.08131 -29.6027 -0.0394777
rfingers 7.12502 -0 0
rthumb 18.7918 -58.7046 -0.0365015
860
root 3.95161 16.5586 29.0801 -14.3994 19.3342 -1.53904
lfemur -13.7325 6.81017 -18.7966
ltibia 35.6365 -0 0
lfoot -5.8762 -26.0085 -0.162034
ltoes 23.95 -0 0
rfemur -58.2707 -2.79097 8.09178
rtibia 47.244 -0 0
rfoot 3.24548 0.541024 0.157308
rtoes -14.2842 0 0
lowerback 12.7818 -1.36245 -4.26635
upperback 4.15173 -2.33721 -1.18032
thorax -2.64968 -1.15921 1.54239
lowerneck -6.68668 -3.34321 2.32196
upperneck 7.41057 -5.01567 3.44897
head 3.63262 -2.26164 0.47186
lclavicle -7.83602e-15 1.53593e-14 -6.48085e-31
lhumerus -35.9258 -22.406 81.0472
lradius 56.8859 -0 0
lwrist 22.5732 0 0
lhand 7.56866 3.80128 0.0538643
lfingers 7.12502 -0 0
lthumb 32.8097 30.7705 0.0368808
rclavicle -7.83602e-15 1.53593e-14 -6.48085e-31
rhumerus -49.2425 -0.757852 -53.0112
rradius 52.6595 -0 0
rwrist 1.55821 0 0
rhand -7.02029 -29.6633 -0.0303385
rfingers 7.12502 -0 0
rthumb 18.8507 -58.7624 -0.0281534
